<?xml version="1.0" encoding="utf-8"?>
<!-- Generator: Adobe Illustrator 24.2.1, SVG Export Plug-In . SVG Version: 6.00 Build 0)  -->
<svg version="1.1" id="Layer_1" xmlns="http://www.w3.org/2000/svg" xmlns:xlink="http://www.w3.org/1999/xlink" x="0px" y="0px"
	 viewBox="0 0 60 60" style="enable-background:new 0 0 60 60;" xml:space="preserve">
<style type="text/css">
	.st0{fill:#EE7A76;}
</style>
<g id="DESIGN">
	<path class="st0" d="M52.7,10.4C51.6,9.2,50.5,8,49.2,7C36.4-3.5,17.5-1.7,7,11.2c-8.8,10.8-9.1,26.2-0.7,37.2
		C12,55.7,20.7,60,30,60c16.6,0,30-13.5,30-30C60,22.8,57.4,15.8,52.7,10.4z M36.3,30h-4.1v14.7h-6.1V30h-2.9v-5.2h2.9v-3.4
		c0-2.4,1.1-6.1,6.1-6.1h4.5v5h-3.3c-0.7,0-1.3,0.5-1.3,1.2c0,0.1,0,0.2,0,0.2v3h4.7L36.3,30z"/>
</g>
</svg>
