<?xml version="1.0" encoding="utf-8"?>
<!-- Generator: Adobe Illustrator 24.2.1, SVG Export Plug-In . SVG Version: 6.00 Build 0)  -->
<svg version="1.1" id="Layer_1" xmlns="http://www.w3.org/2000/svg" xmlns:xlink="http://www.w3.org/1999/xlink" x="0px" y="0px"
	 viewBox="0 0 60 60" style="enable-background:new 0 0 60 60;" xml:space="preserve">
<style type="text/css">
	.st0{fill:#EE7A76;}
</style>
<g id="DESIGN">
	<path class="st0" d="M30,25.2c-2.7,0-4.8,2.2-4.8,4.8s2.2,4.8,4.8,4.8s4.8-2.2,4.8-4.8l0,0C34.8,27.3,32.7,25.2,30,25.2z"/>
	<path class="st0" d="M52.7,10.4c-1-1.2-2.2-2.4-3.4-3.4C36.6-3.7,17.7-2,7,10.6s-9,31.6,3.6,42.3s31.6,9,42.3-3.6
		C62.4,38,62.3,21.5,52.7,10.4L52.7,10.4z M44.4,36c0,1.2-0.2,2.4-0.7,3.5c-0.8,1.9-2.3,3.5-4.2,4.2c-1.1,0.4-2.3,0.6-3.5,0.7
		c-1.5,0.1-2,0.1-6,0.1s-4.4,0-6-0.1c-1.2,0-2.4-0.2-3.5-0.7c-1.9-0.8-3.5-2.3-4.2-4.2c-0.4-1.1-0.6-2.3-0.7-3.5
		c-0.1-1.5-0.1-2-0.1-6s0-4.4,0.1-6c0-1.2,0.2-2.4,0.7-3.5c0.8-1.9,2.3-3.5,4.2-4.2c1.1-0.4,2.3-0.6,3.5-0.7c1.5-0.1,2-0.1,6-0.1
		s4.4,0,6,0.1c1.2,0,2.4,0.2,3.5,0.7c1.9,0.8,3.5,2.3,4.2,4.2c0.4,1.1,0.6,2.3,0.7,3.5c0.1,1.5,0.1,2,0.1,6S44.5,34.4,44.4,36z"/>
	<path class="st0" d="M41.3,21.4c-0.5-1.3-1.5-2.3-2.8-2.8c-0.9-0.3-1.8-0.5-2.7-0.5c-1.5-0.1-2-0.1-5.9-0.1s-4.3,0-5.9,0.1
		c-0.9,0-1.8,0.2-2.7,0.5c-1.3,0.5-2.3,1.5-2.8,2.8c-0.3,0.9-0.5,1.8-0.5,2.7c-0.1,1.5-0.1,2-0.1,5.9s0,4.3,0.1,5.9
		c0,0.9,0.2,1.8,0.5,2.7c0.5,1.3,1.5,2.3,2.8,2.8c0.9,0.3,1.8,0.5,2.7,0.5c1.5,0.1,2,0.1,5.9,0.1s4.3,0,5.9-0.1
		c0.9,0,1.8-0.2,2.7-0.5c1.3-0.5,2.3-1.5,2.8-2.8c0.3-0.9,0.5-1.8,0.5-2.7c0.1-1.5,0.1-2,0.1-5.9s0-4.3-0.1-5.9
		C41.8,23.2,41.6,22.3,41.3,21.4z M30,37.5c-4.1,0-7.5-3.3-7.5-7.5s3.3-7.5,7.5-7.5s7.5,3.3,7.5,7.5v0C37.5,34.1,34.1,37.5,30,37.5z
		 M37.8,24c-1,0-1.8-0.8-1.8-1.7c0-1,0.8-1.8,1.7-1.8s1.8,0.8,1.8,1.7c0,0,0,0,0,0C39.5,23.2,38.7,24,37.8,24z"/>
</g>
</svg>
